<svg width="98" height="394" viewBox="0 0 98 394" fill="none" xmlns="http://www.w3.org/2000/svg">
<path d="M50.704 54.592H21.52L15.632 88H0.272L15.632 0.959999H64.016L61.456 15.68H28.432L24.08 39.872H53.264L50.704 54.592ZM58.896 235.496C54.032 237.885 49.296 239.635 44.688 240.744C40.08 241.768 35.8987 242.28 32.144 242.28C24.8053 242.28 18.7467 240.659 13.968 237.416C9.27467 234.088 5.98933 229.651 4.112 224.104C2.23467 218.472 1.85067 212.157 2.96 205.16L5.52 189.544C7.48267 177.341 11.664 168.168 18.064 162.024C24.464 155.795 33.3387 152.68 44.688 152.68C48.4427 152.68 52.2827 153.107 56.208 153.96C60.2187 154.728 64.4427 156.093 68.88 158.056L63.12 171.496C59.1093 169.875 55.6107 168.765 52.624 168.168C49.6373 167.485 46.7787 167.144 44.048 167.144C37.3067 167.144 32.1013 169.235 28.432 173.416C24.7627 177.597 22.3733 182.973 21.264 189.544L18.704 205.16C18.0213 209.512 18.0213 213.395 18.704 216.808C19.472 220.221 21.0933 222.909 23.568 224.872C26.0427 226.835 29.4987 227.816 33.936 227.816C35.6427 227.816 37.52 227.645 39.568 227.304C41.7013 226.963 44.0907 226.365 46.736 225.512L50.064 206.568H35.856L38.288 193.128H66.32L58.896 235.496ZM31.76 306.96L45.584 366.864L80.656 306.96H97.68L82.32 394H67.6L73.488 360.72L80.656 331.024L49.68 383.76H35.984L24.336 330.256L20.88 360.72L14.992 394H0.272L15.632 306.96H31.76Z" fill="white"/>
</svg>
